<svg width="26" height="20" viewBox="0 0 26 20" fill="none" xmlns="http://www.w3.org/2000/svg">
<path d="M13.6113 11H12.002L13.328 11.912C14.8154 12.9349 15.5819 14.5551 15.9732 15.9714C16.1673 16.6743 16.2647 17.3118 16.3133 17.773C16.3376 18.0032 16.3496 18.1884 16.3555 18.3144C16.3585 18.3774 16.36 18.4256 16.3607 18.4571L16.3613 18.4917L16.3613 18.4992L16.3613 18.5V18.5003L16.3613 18.5004V18.5005L16.3613 19H16.8613H24.1113H24.6113V18.5C24.6113 13.5327 22.1794 11.428 20.7487 11.0192L20.6814 11H20.6113H13.6113Z" stroke="black" stroke-linecap="round"/>
<path d="M5.05555 11H4.97441L4.89743 11.0257C3.2526 11.5739 0.0243819 13.7472 0.558607 18.5552L0.608028 19H1.05555H15.5555H16.0555V18.5C16.0555 13.5327 13.6236 11.428 12.1929 11.0192L12.1256 11H12.0555H5.05555Z" stroke="black" stroke-linecap="round"/>
<circle cx="8.55468" cy="5" r="4.5" stroke="black"/>
<circle cx="17.5547" cy="5" r="4.5" stroke="black"/>
</svg>
