<svg width="295" height="39" viewBox="0 0 295 39" fill="none" xmlns="http://www.w3.org/2000/svg">
<rect width="295" height="39" rx="19.5" fill="#FDE404"/>
<path d="M128.77 18.168C128.546 17.7573 128.238 17.4447 127.846 17.23C127.454 17.0153 126.997 16.908 126.474 16.908C125.895 16.908 125.382 17.0387 124.934 17.3C124.486 17.5613 124.136 17.9347 123.884 18.42C123.632 18.9053 123.506 19.4653 123.506 20.1C123.506 20.7533 123.632 21.3227 123.884 21.808C124.145 22.2933 124.505 22.6667 124.962 22.928C125.419 23.1893 125.951 23.32 126.558 23.32C127.305 23.32 127.916 23.124 128.392 22.732C128.868 22.3307 129.181 21.7753 129.33 21.066H125.97V19.568H131.262V21.276C131.131 21.9573 130.851 22.5873 130.422 23.166C129.993 23.7447 129.437 24.2113 128.756 24.566C128.084 24.9113 127.328 25.084 126.488 25.084C125.545 25.084 124.691 24.874 123.926 24.454C123.17 24.0247 122.573 23.432 122.134 22.676C121.705 21.92 121.49 21.0613 121.49 20.1C121.49 19.1387 121.705 18.28 122.134 17.524C122.573 16.7587 123.17 16.166 123.926 15.746C124.691 15.3167 125.541 15.102 126.474 15.102C127.575 15.102 128.532 15.3727 129.344 15.914C130.156 16.446 130.716 17.1973 131.024 18.168H128.77ZM132.208 21.094C132.208 20.31 132.362 19.6147 132.67 19.008C132.987 18.4013 133.412 17.9347 133.944 17.608C134.485 17.2813 135.087 17.118 135.75 17.118C136.329 17.118 136.833 17.2347 137.262 17.468C137.701 17.7013 138.051 17.9953 138.312 18.35V17.244H140.286V25H138.312V23.866C138.06 24.23 137.71 24.5333 137.262 24.776C136.823 25.0093 136.315 25.126 135.736 25.126C135.083 25.126 134.485 24.958 133.944 24.622C133.412 24.286 132.987 23.8147 132.67 23.208C132.362 22.592 132.208 21.8873 132.208 21.094ZM138.312 21.122C138.312 20.646 138.219 20.24 138.032 19.904C137.845 19.5587 137.593 19.2973 137.276 19.12C136.959 18.9333 136.618 18.84 136.254 18.84C135.89 18.84 135.554 18.9287 135.246 19.106C134.938 19.2833 134.686 19.5447 134.49 19.89C134.303 20.226 134.21 20.6273 134.21 21.094C134.21 21.5607 134.303 21.9713 134.49 22.326C134.686 22.6713 134.938 22.9373 135.246 23.124C135.563 23.3107 135.899 23.404 136.254 23.404C136.618 23.404 136.959 23.3153 137.276 23.138C137.593 22.9513 137.845 22.69 138.032 22.354C138.219 22.0087 138.312 21.598 138.312 21.122ZM144.16 14.64V25H142.2V14.64H144.16ZM148.057 14.64V25H146.097V14.64H148.057ZM157.203 20.954C157.203 21.234 157.185 21.486 157.147 21.71H151.477C151.524 22.27 151.72 22.7087 152.065 23.026C152.411 23.3433 152.835 23.502 153.339 23.502C154.067 23.502 154.585 23.1893 154.893 22.564H157.007C156.783 23.3107 156.354 23.9267 155.719 24.412C155.085 24.888 154.305 25.126 153.381 25.126C152.635 25.126 151.963 24.9627 151.365 24.636C150.777 24.3 150.315 23.8287 149.979 23.222C149.653 22.6153 149.489 21.9153 149.489 21.122C149.489 20.3193 149.653 19.6147 149.979 19.008C150.306 18.4013 150.763 17.9347 151.351 17.608C151.939 17.2813 152.616 17.118 153.381 17.118C154.119 17.118 154.777 17.2767 155.355 17.594C155.943 17.9113 156.396 18.364 156.713 18.952C157.04 19.5307 157.203 20.198 157.203 20.954ZM155.173 20.394C155.164 19.89 154.982 19.4887 154.627 19.19C154.273 18.882 153.839 18.728 153.325 18.728C152.84 18.728 152.429 18.8773 152.093 19.176C151.767 19.4653 151.566 19.8713 151.491 20.394H155.173ZM160.594 18.448C160.846 18.0373 161.173 17.7153 161.574 17.482C161.985 17.2487 162.451 17.132 162.974 17.132V19.19H162.456C161.84 19.19 161.373 19.3347 161.056 19.624C160.748 19.9133 160.594 20.4173 160.594 21.136V25H158.634V17.244H160.594V18.448ZM165.288 16.32C164.943 16.32 164.653 16.2127 164.42 15.998C164.196 15.774 164.084 15.4987 164.084 15.172C164.084 14.8453 164.196 14.5747 164.42 14.36C164.653 14.136 164.943 14.024 165.288 14.024C165.633 14.024 165.918 14.136 166.142 14.36C166.375 14.5747 166.492 14.8453 166.492 15.172C166.492 15.4987 166.375 15.774 166.142 15.998C165.918 16.2127 165.633 16.32 165.288 16.32ZM166.254 17.244V25H164.294V17.244H166.254ZM175.401 20.954C175.401 21.234 175.382 21.486 175.345 21.71H169.675C169.721 22.27 169.917 22.7087 170.263 23.026C170.608 23.3433 171.033 23.502 171.537 23.502C172.265 23.502 172.783 23.1893 173.091 22.564H175.205C174.981 23.3107 174.551 23.9267 173.917 24.412C173.282 24.888 172.503 25.126 171.579 25.126C170.832 25.126 170.16 24.9627 169.563 24.636C168.975 24.3 168.513 23.8287 168.177 23.222C167.85 22.6153 167.687 21.9153 167.687 21.122C167.687 20.3193 167.85 19.6147 168.177 19.008C168.503 18.4013 168.961 17.9347 169.549 17.608C170.137 17.2813 170.813 17.118 171.579 17.118C172.316 17.118 172.974 17.2767 173.553 17.594C174.141 17.9113 174.593 18.364 174.911 18.952C175.237 19.5307 175.401 20.198 175.401 20.954ZM173.371 20.394C173.361 19.89 173.179 19.4887 172.825 19.19C172.47 18.882 172.036 18.728 171.523 18.728C171.037 18.728 170.627 18.8773 170.291 19.176C169.964 19.4653 169.763 19.8713 169.689 20.394H173.371Z" fill="black"/>
</svg>
