<svg width="295" height="39" viewBox="0 0 295 39" fill="none" xmlns="http://www.w3.org/2000/svg">
<rect width="295" height="39" rx="19.5" fill="#FDE404"/>
<path d="M96.62 12.228V22H94.66V15.644L92.042 22H90.558L87.926 15.644V22H85.966V12.228H88.192L91.3 19.494L94.408 12.228H96.62ZM105.768 17.954C105.768 18.234 105.749 18.486 105.712 18.71H100.042C100.088 19.27 100.284 19.7087 100.63 20.026C100.975 20.3433 101.4 20.502 101.904 20.502C102.632 20.502 103.15 20.1893 103.458 19.564H105.572C105.348 20.3107 104.918 20.9267 104.284 21.412C103.649 21.888 102.87 22.126 101.946 22.126C101.199 22.126 100.527 21.9627 99.9298 21.636C99.3418 21.3 98.8798 20.8287 98.5438 20.222C98.2171 19.6153 98.0538 18.9153 98.0538 18.122C98.0538 17.3193 98.2171 16.6147 98.5438 16.008C98.8705 15.4013 99.3278 14.9347 99.9158 14.608C100.504 14.2813 101.18 14.118 101.946 14.118C102.683 14.118 103.341 14.2767 103.92 14.594C104.508 14.9113 104.96 15.364 105.278 15.952C105.604 16.5307 105.768 17.198 105.768 17.954ZM103.738 17.394C103.728 16.89 103.546 16.4887 103.192 16.19C102.837 15.882 102.403 15.728 101.89 15.728C101.404 15.728 100.994 15.8773 100.658 16.176C100.331 16.4653 100.13 16.8713 100.056 17.394H103.738ZM110.166 22.126C109.532 22.126 108.962 22.014 108.458 21.79C107.954 21.5567 107.553 21.244 107.254 20.852C106.965 20.46 106.806 20.026 106.778 19.55H108.752C108.79 19.8487 108.934 20.096 109.186 20.292C109.448 20.488 109.77 20.586 110.152 20.586C110.526 20.586 110.815 20.5113 111.02 20.362C111.235 20.2127 111.342 20.0213 111.342 19.788C111.342 19.536 111.212 19.3493 110.95 19.228C110.698 19.0973 110.292 18.9573 109.732 18.808C109.154 18.668 108.678 18.5233 108.304 18.374C107.94 18.2247 107.623 17.996 107.352 17.688C107.091 17.38 106.96 16.9647 106.96 16.442C106.96 16.0127 107.082 15.6207 107.324 15.266C107.576 14.9113 107.931 14.6313 108.388 14.426C108.855 14.2207 109.401 14.118 110.026 14.118C110.95 14.118 111.688 14.3513 112.238 14.818C112.789 15.2753 113.092 15.896 113.148 16.68H111.272C111.244 16.372 111.114 16.1293 110.88 15.952C110.656 15.7653 110.353 15.672 109.97 15.672C109.616 15.672 109.34 15.7373 109.144 15.868C108.958 15.9987 108.864 16.1807 108.864 16.414C108.864 16.6753 108.995 16.876 109.256 17.016C109.518 17.1467 109.924 17.282 110.474 17.422C111.034 17.562 111.496 17.7067 111.86 17.856C112.224 18.0053 112.537 18.2387 112.798 18.556C113.069 18.864 113.209 19.2747 113.218 19.788C113.218 20.236 113.092 20.6373 112.84 20.992C112.598 21.3467 112.243 21.6267 111.776 21.832C111.319 22.028 110.782 22.126 110.166 22.126ZM125.373 17.954C125.373 18.234 125.355 18.486 125.317 18.71H119.647C119.694 19.27 119.89 19.7087 120.235 20.026C120.581 20.3433 121.005 20.502 121.509 20.502C122.237 20.502 122.755 20.1893 123.063 19.564H125.177C124.953 20.3107 124.524 20.9267 123.889 21.412C123.255 21.888 122.475 22.126 121.551 22.126C120.805 22.126 120.133 21.9627 119.535 21.636C118.947 21.3 118.485 20.8287 118.149 20.222C117.823 19.6153 117.659 18.9153 117.659 18.122C117.659 17.3193 117.823 16.6147 118.149 16.008C118.476 15.4013 118.933 14.9347 119.521 14.608C120.109 14.2813 120.786 14.118 121.551 14.118C122.289 14.118 122.947 14.2767 123.525 14.594C124.113 14.9113 124.566 15.364 124.883 15.952C125.21 16.5307 125.373 17.198 125.373 17.954ZM123.343 17.394C123.334 16.89 123.152 16.4887 122.797 16.19C122.443 15.882 122.009 15.728 121.495 15.728C121.01 15.728 120.599 15.8773 120.263 16.176C119.937 16.4653 119.736 16.8713 119.661 17.394H123.343ZM123.049 12.2L119.829 13.67V12.27L123.049 10.604V12.2ZM126.3 18.108C126.3 17.3333 126.459 16.6473 126.776 16.05C127.103 15.4433 127.541 14.972 128.092 14.636C128.643 14.3 129.249 14.132 129.912 14.132C130.463 14.132 130.948 14.2393 131.368 14.454C131.797 14.6593 132.143 14.9253 132.404 15.252V14.244H134.378V25.696H132.404V20.936C132.143 21.272 131.793 21.552 131.354 21.776C130.915 22 130.421 22.112 129.87 22.112C129.217 22.112 128.615 21.944 128.064 21.608C127.523 21.2627 127.093 20.7867 126.776 20.18C126.459 19.5733 126.3 18.8827 126.3 18.108ZM132.404 18.122C132.404 17.646 132.306 17.2353 132.11 16.89C131.914 16.5447 131.657 16.2833 131.34 16.106C131.032 15.9287 130.701 15.84 130.346 15.84C130.001 15.84 129.669 15.9287 129.352 16.106C129.044 16.2833 128.792 16.5447 128.596 16.89C128.4 17.226 128.302 17.632 128.302 18.108C128.302 18.584 128.4 18.9993 128.596 19.354C128.792 19.6993 129.044 19.9607 129.352 20.138C129.669 20.3153 130.001 20.404 130.346 20.404C130.701 20.404 131.032 20.3153 131.34 20.138C131.657 19.9607 131.914 19.6993 132.11 19.354C132.306 19.0087 132.404 18.598 132.404 18.122ZM143.614 14.244V22H141.64V21.02C141.388 21.356 141.057 21.622 140.646 21.818C140.245 22.0047 139.806 22.098 139.33 22.098C138.724 22.098 138.187 21.972 137.72 21.72C137.254 21.4587 136.885 21.0807 136.614 20.586C136.353 20.082 136.222 19.4847 136.222 18.794V14.244H138.182V18.514C138.182 19.13 138.336 19.606 138.644 19.942C138.952 20.2687 139.372 20.432 139.904 20.432C140.446 20.432 140.87 20.2687 141.178 19.942C141.486 19.606 141.64 19.13 141.64 18.514V14.244H143.614ZM146.542 13.32C146.197 13.32 145.907 13.2127 145.674 12.998C145.45 12.774 145.338 12.4987 145.338 12.172C145.338 11.8453 145.45 11.5747 145.674 11.36C145.907 11.136 146.197 11.024 146.542 11.024C146.887 11.024 147.172 11.136 147.396 11.36C147.629 11.5747 147.746 11.8453 147.746 12.172C147.746 12.4987 147.629 12.774 147.396 12.998C147.172 13.2127 146.887 13.32 146.542 13.32ZM147.508 14.244V22H145.548V14.244H147.508ZM151.405 15.364C151.657 15.0093 152.002 14.7153 152.441 14.482C152.889 14.2393 153.397 14.118 153.967 14.118C154.629 14.118 155.227 14.2813 155.759 14.608C156.3 14.9347 156.725 15.4013 157.033 16.008C157.35 16.6053 157.509 17.3007 157.509 18.094C157.509 18.8873 157.35 19.592 157.033 20.208C156.725 20.8147 156.3 21.286 155.759 21.622C155.227 21.958 154.629 22.126 153.967 22.126C153.397 22.126 152.893 22.0093 152.455 21.776C152.025 21.5427 151.675 21.2487 151.405 20.894V25.696H149.445V14.244H151.405V15.364ZM155.507 18.094C155.507 17.6273 155.409 17.226 155.213 16.89C155.026 16.5447 154.774 16.2833 154.457 16.106C154.149 15.9287 153.813 15.84 153.449 15.84C153.094 15.84 152.758 15.9333 152.441 16.12C152.133 16.2973 151.881 16.5587 151.685 16.904C151.498 17.2493 151.405 17.6553 151.405 18.122C151.405 18.5887 151.498 18.9947 151.685 19.34C151.881 19.6853 152.133 19.9513 152.441 20.138C152.758 20.3153 153.094 20.404 153.449 20.404C153.813 20.404 154.149 20.3107 154.457 20.124C154.774 19.9373 155.026 19.6713 155.213 19.326C155.409 18.9807 155.507 18.57 155.507 18.094ZM166.143 17.954C166.143 18.234 166.124 18.486 166.087 18.71H160.417C160.463 19.27 160.659 19.7087 161.005 20.026C161.35 20.3433 161.775 20.502 162.279 20.502C163.007 20.502 163.525 20.1893 163.833 19.564H165.947C165.723 20.3107 165.293 20.9267 164.659 21.412C164.024 21.888 163.245 22.126 162.321 22.126C161.574 22.126 160.902 21.9627 160.305 21.636C159.717 21.3 159.255 20.8287 158.919 20.222C158.592 19.6153 158.429 18.9153 158.429 18.122C158.429 17.3193 158.592 16.6147 158.919 16.008C159.245 15.4013 159.703 14.9347 160.291 14.608C160.879 14.2813 161.555 14.118 162.321 14.118C163.058 14.118 163.716 14.2767 164.295 14.594C164.883 14.9113 165.335 15.364 165.653 15.952C165.979 16.5307 166.143 17.198 166.143 17.954ZM164.113 17.394C164.103 16.89 163.921 16.4887 163.567 16.19C163.212 15.882 162.778 15.728 162.265 15.728C161.779 15.728 161.369 15.8773 161.033 16.176C160.706 16.4653 160.505 16.8713 160.431 17.394H164.113ZM170.541 22.126C169.907 22.126 169.337 22.014 168.833 21.79C168.329 21.5567 167.928 21.244 167.629 20.852C167.34 20.46 167.181 20.026 167.153 19.55H169.127C169.165 19.8487 169.309 20.096 169.561 20.292C169.823 20.488 170.145 20.586 170.527 20.586C170.901 20.586 171.19 20.5113 171.395 20.362C171.61 20.2127 171.717 20.0213 171.717 19.788C171.717 19.536 171.587 19.3493 171.325 19.228C171.073 19.0973 170.667 18.9573 170.107 18.808C169.529 18.668 169.053 18.5233 168.679 18.374C168.315 18.2247 167.998 17.996 167.727 17.688C167.466 17.38 167.335 16.9647 167.335 16.442C167.335 16.0127 167.457 15.6207 167.699 15.266C167.951 14.9113 168.306 14.6313 168.763 14.426C169.23 14.2207 169.776 14.118 170.401 14.118C171.325 14.118 172.063 14.3513 172.613 14.818C173.164 15.2753 173.467 15.896 173.523 16.68H171.647C171.619 16.372 171.489 16.1293 171.255 15.952C171.031 15.7653 170.728 15.672 170.345 15.672C169.991 15.672 169.715 15.7373 169.519 15.868C169.333 15.9987 169.239 16.1807 169.239 16.414C169.239 16.6753 169.37 16.876 169.631 17.016C169.893 17.1467 170.299 17.282 170.849 17.422C171.409 17.562 171.871 17.7067 172.235 17.856C172.599 18.0053 172.912 18.2387 173.173 18.556C173.444 18.864 173.584 19.2747 173.593 19.788C173.593 20.236 173.467 20.6373 173.215 20.992C172.973 21.3467 172.618 21.6267 172.151 21.832C171.694 22.028 171.157 22.126 170.541 22.126ZM185.748 17.954C185.748 18.234 185.73 18.486 185.692 18.71H180.022C180.069 19.27 180.265 19.7087 180.61 20.026C180.956 20.3433 181.38 20.502 181.884 20.502C182.612 20.502 183.13 20.1893 183.438 19.564H185.552C185.328 20.3107 184.899 20.9267 184.264 21.412C183.63 21.888 182.85 22.126 181.926 22.126C181.18 22.126 180.508 21.9627 179.91 21.636C179.322 21.3 178.86 20.8287 178.524 20.222C178.198 19.6153 178.034 18.9153 178.034 18.122C178.034 17.3193 178.198 16.6147 178.524 16.008C178.851 15.4013 179.308 14.9347 179.896 14.608C180.484 14.2813 181.161 14.118 181.926 14.118C182.664 14.118 183.322 14.2767 183.9 14.594C184.488 14.9113 184.941 15.364 185.258 15.952C185.585 16.5307 185.748 17.198 185.748 17.954ZM183.718 17.394C183.709 16.89 183.527 16.4887 183.172 16.19C182.818 15.882 182.384 15.728 181.87 15.728C181.385 15.728 180.974 15.8773 180.638 16.176C180.312 16.4653 180.111 16.8713 180.036 17.394H183.718ZM189.461 15.854V19.606C189.461 19.8673 189.522 20.0587 189.643 20.18C189.774 20.292 189.988 20.348 190.287 20.348H191.197V22H189.965C188.313 22 187.487 21.1973 187.487 19.592V15.854H186.563V14.244H187.487V12.326H189.461V14.244H191.197V15.854H189.461ZM195.439 18.122C195.439 17.3193 195.602 16.6193 195.929 16.022C196.255 15.4153 196.708 14.9487 197.287 14.622C197.865 14.286 198.528 14.118 199.275 14.118C200.236 14.118 201.029 14.3607 201.655 14.846C202.289 15.322 202.714 15.994 202.929 16.862H200.815C200.703 16.526 200.511 16.2647 200.241 16.078C199.979 15.882 199.653 15.784 199.261 15.784C198.701 15.784 198.257 15.9893 197.931 16.4C197.604 16.8013 197.441 17.3753 197.441 18.122C197.441 18.8593 197.604 19.4333 197.931 19.844C198.257 20.2453 198.701 20.446 199.261 20.446C200.054 20.446 200.572 20.0913 200.815 19.382H202.929C202.714 20.222 202.289 20.8893 201.655 21.384C201.02 21.8787 200.227 22.126 199.275 22.126C198.528 22.126 197.865 21.9627 197.287 21.636C196.708 21.3 196.255 20.8333 195.929 20.236C195.602 19.6293 195.439 18.9247 195.439 18.122ZM206.324 11.64V22H204.364V11.64H206.324ZM215.583 14.244V22H213.609V21.02C213.357 21.356 213.026 21.622 212.615 21.818C212.214 22.0047 211.775 22.098 211.299 22.098C210.692 22.098 210.156 21.972 209.689 21.72C209.222 21.4587 208.854 21.0807 208.583 20.586C208.322 20.082 208.191 19.4847 208.191 18.794V14.244H210.151V18.514C210.151 19.13 210.305 19.606 210.613 19.942C210.921 20.2687 211.341 20.432 211.873 20.432C212.414 20.432 212.839 20.2687 213.147 19.942C213.455 19.606 213.609 19.13 213.609 18.514V14.244H215.583ZM219.477 15.378C219.729 15.0047 220.074 14.7013 220.513 14.468C220.961 14.2347 221.469 14.118 222.039 14.118C222.701 14.118 223.299 14.2813 223.831 14.608C224.372 14.9347 224.797 15.4013 225.105 16.008C225.422 16.6053 225.581 17.3007 225.581 18.094C225.581 18.8873 225.422 19.592 225.105 20.208C224.797 20.8147 224.372 21.286 223.831 21.622C223.299 21.958 222.701 22.126 222.039 22.126C221.46 22.126 220.951 22.014 220.513 21.79C220.083 21.5567 219.738 21.258 219.477 20.894V22H217.517V11.64H219.477V15.378ZM223.579 18.094C223.579 17.6273 223.481 17.226 223.285 16.89C223.098 16.5447 222.846 16.2833 222.529 16.106C222.221 15.9287 221.885 15.84 221.521 15.84C221.166 15.84 220.83 15.9333 220.513 16.12C220.205 16.2973 219.953 16.5587 219.757 16.904C219.57 17.2493 219.477 17.6553 219.477 18.122C219.477 18.5887 219.57 18.9947 219.757 19.34C219.953 19.6853 220.205 19.9513 220.513 20.138C220.83 20.3153 221.166 20.404 221.521 20.404C221.885 20.404 222.221 20.3107 222.529 20.124C222.846 19.9373 223.098 19.6713 223.285 19.326C223.481 18.9807 223.579 18.57 223.579 18.094ZM229.973 22.126C229.338 22.126 228.769 22.014 228.265 21.79C227.761 21.5567 227.36 21.244 227.061 20.852C226.772 20.46 226.613 20.026 226.585 19.55H228.559C228.596 19.8487 228.741 20.096 228.993 20.292C229.254 20.488 229.576 20.586 229.959 20.586C230.332 20.586 230.622 20.5113 230.827 20.362C231.042 20.2127 231.149 20.0213 231.149 19.788C231.149 19.536 231.018 19.3493 230.757 19.228C230.505 19.0973 230.099 18.9573 229.539 18.808C228.96 18.668 228.484 18.5233 228.111 18.374C227.747 18.2247 227.43 17.996 227.159 17.688C226.898 17.38 226.767 16.9647 226.767 16.442C226.767 16.0127 226.888 15.6207 227.131 15.266C227.383 14.9113 227.738 14.6313 228.195 14.426C228.662 14.2207 229.208 14.118 229.833 14.118C230.757 14.118 231.494 14.3513 232.045 14.818C232.596 15.2753 232.899 15.896 232.955 16.68H231.079C231.051 16.372 230.92 16.1293 230.687 15.952C230.463 15.7653 230.16 15.672 229.777 15.672C229.422 15.672 229.147 15.7373 228.951 15.868C228.764 15.9987 228.671 16.1807 228.671 16.414C228.671 16.6753 228.802 16.876 229.063 17.016C229.324 17.1467 229.73 17.282 230.281 17.422C230.841 17.562 231.303 17.7067 231.667 17.856C232.031 18.0053 232.344 18.2387 232.605 18.556C232.876 18.864 233.016 19.2747 233.025 19.788C233.025 20.236 232.899 20.6373 232.647 20.992C232.404 21.3467 232.05 21.6267 231.583 21.832C231.126 22.028 230.589 22.126 229.973 22.126Z" fill="black"/>
</svg>
