<svg width="295" height="39" viewBox="0 0 295 39" fill="none" xmlns="http://www.w3.org/2000/svg">
<rect width="295" height="39" rx="19.5" fill="#FDE404"/>
<path d="M84.926 17.81V20.26H88.216V21.814H84.926V24.404H88.636V26H82.966V16.214H88.636V17.81H84.926ZM94.7152 18.132C95.6392 18.132 96.3858 18.426 96.9552 19.014C97.5245 19.5927 97.8092 20.4047 97.8092 21.45V26H95.8492V21.716C95.8492 21.1 95.6952 20.6287 95.3872 20.302C95.0792 19.966 94.6592 19.798 94.1272 19.798C93.5858 19.798 93.1565 19.966 92.8392 20.302C92.5312 20.6287 92.3772 21.1 92.3772 21.716V26H90.4172V18.244H92.3772V19.21C92.6385 18.874 92.9698 18.6127 93.3712 18.426C93.7818 18.23 94.2298 18.132 94.7152 18.132ZM102.907 24.194L104.867 18.244H106.953L104.083 26H101.703L98.847 18.244H100.947L102.907 24.194ZM111.498 26.126C110.751 26.126 110.079 25.9627 109.482 25.636C108.885 25.3 108.413 24.8287 108.068 24.222C107.732 23.6153 107.564 22.9153 107.564 22.122C107.564 21.3287 107.737 20.6287 108.082 20.022C108.437 19.4153 108.917 18.9487 109.524 18.622C110.131 18.286 110.807 18.118 111.554 18.118C112.301 18.118 112.977 18.286 113.584 18.622C114.191 18.9487 114.667 19.4153 115.012 20.022C115.367 20.6287 115.544 21.3287 115.544 22.122C115.544 22.9153 115.362 23.6153 114.998 24.222C114.643 24.8287 114.158 25.3 113.542 25.636C112.935 25.9627 112.254 26.126 111.498 26.126ZM111.498 24.418C111.853 24.418 112.184 24.334 112.492 24.166C112.809 23.9887 113.061 23.7273 113.248 23.382C113.435 23.0367 113.528 22.6167 113.528 22.122C113.528 21.3847 113.332 20.82 112.94 20.428C112.557 20.0267 112.086 19.826 111.526 19.826C110.966 19.826 110.495 20.0267 110.112 20.428C109.739 20.82 109.552 21.3847 109.552 22.122C109.552 22.8593 109.734 23.4287 110.098 23.83C110.471 24.222 110.938 24.418 111.498 24.418ZM124.402 18.244L119.6 29.668H117.514L119.194 25.804L116.086 18.244H118.284L120.286 23.662L122.316 18.244H124.402ZM132.668 21.954C132.668 22.234 132.65 22.486 132.612 22.71H126.942C126.989 23.27 127.185 23.7087 127.53 24.026C127.876 24.3433 128.3 24.502 128.804 24.502C129.532 24.502 130.05 24.1893 130.358 23.564H132.472C132.248 24.3107 131.819 24.9267 131.184 25.412C130.55 25.888 129.77 26.126 128.846 26.126C128.1 26.126 127.428 25.9627 126.83 25.636C126.242 25.3 125.78 24.8287 125.444 24.222C125.118 23.6153 124.954 22.9153 124.954 22.122C124.954 21.3193 125.118 20.6147 125.444 20.008C125.771 19.4013 126.228 18.9347 126.816 18.608C127.404 18.2813 128.081 18.118 128.846 18.118C129.584 18.118 130.242 18.2767 130.82 18.594C131.408 18.9113 131.861 19.364 132.178 19.952C132.505 20.5307 132.668 21.198 132.668 21.954ZM130.638 21.394C130.629 20.89 130.447 20.4887 130.092 20.19C129.738 19.882 129.304 19.728 128.79 19.728C128.305 19.728 127.894 19.8773 127.558 20.176C127.232 20.4653 127.031 20.8713 126.956 21.394H130.638ZM136.059 19.448C136.311 19.0373 136.637 18.7153 137.039 18.482C137.449 18.2487 137.916 18.132 138.439 18.132V20.19H137.921C137.305 20.19 136.838 20.3347 136.521 20.624C136.213 20.9133 136.059 21.4173 136.059 22.136V26H134.099V18.244H136.059V19.448ZM150.417 18.244V26H148.443V25.02C148.191 25.356 147.86 25.622 147.449 25.818C147.048 26.0047 146.609 26.098 146.133 26.098C145.526 26.098 144.99 25.972 144.523 25.72C144.056 25.4587 143.688 25.0807 143.417 24.586C143.156 24.082 143.025 23.4847 143.025 22.794V18.244H144.985V22.514C144.985 23.13 145.139 23.606 145.447 23.942C145.755 24.2687 146.175 24.432 146.707 24.432C147.248 24.432 147.673 24.2687 147.981 23.942C148.289 23.606 148.443 23.13 148.443 22.514V18.244H150.417ZM156.649 18.132C157.573 18.132 158.319 18.426 158.889 19.014C159.458 19.5927 159.743 20.4047 159.743 21.45V26H157.783V21.716C157.783 21.1 157.629 20.6287 157.321 20.302C157.013 19.966 156.593 19.798 156.061 19.798C155.519 19.798 155.09 19.966 154.773 20.302C154.465 20.6287 154.311 21.1 154.311 21.716V26H152.351V18.244H154.311V19.21C154.572 18.874 154.903 18.6127 155.305 18.426C155.715 18.23 156.163 18.132 156.649 18.132ZM174.575 18.132C175.527 18.132 176.292 18.426 176.871 19.014C177.459 19.5927 177.753 20.4047 177.753 21.45V26H175.793V21.716C175.793 21.1093 175.639 20.6473 175.331 20.33C175.023 20.0033 174.603 19.84 174.071 19.84C173.539 19.84 173.114 20.0033 172.797 20.33C172.489 20.6473 172.335 21.1093 172.335 21.716V26H170.375V21.716C170.375 21.1093 170.221 20.6473 169.913 20.33C169.605 20.0033 169.185 19.84 168.653 19.84C168.111 19.84 167.682 20.0033 167.365 20.33C167.057 20.6473 166.903 21.1093 166.903 21.716V26H164.943V18.244H166.903V19.182C167.155 18.8553 167.477 18.5987 167.869 18.412C168.27 18.2253 168.709 18.132 169.185 18.132C169.791 18.132 170.333 18.2627 170.809 18.524C171.285 18.776 171.653 19.14 171.915 19.616C172.167 19.168 172.531 18.8087 173.007 18.538C173.492 18.2673 174.015 18.132 174.575 18.132ZM186.822 21.954C186.822 22.234 186.804 22.486 186.766 22.71H181.096C181.143 23.27 181.339 23.7087 181.684 24.026C182.03 24.3433 182.454 24.502 182.958 24.502C183.686 24.502 184.204 24.1893 184.512 23.564H186.626C186.402 24.3107 185.973 24.9267 185.338 25.412C184.704 25.888 183.924 26.126 183 26.126C182.254 26.126 181.582 25.9627 180.984 25.636C180.396 25.3 179.934 24.8287 179.598 24.222C179.272 23.6153 179.108 22.9153 179.108 22.122C179.108 21.3193 179.272 20.6147 179.598 20.008C179.925 19.4013 180.382 18.9347 180.97 18.608C181.558 18.2813 182.235 18.118 183 18.118C183.738 18.118 184.396 18.2767 184.974 18.594C185.562 18.9113 186.015 19.364 186.332 19.952C186.659 20.5307 186.822 21.198 186.822 21.954ZM184.792 21.394C184.783 20.89 184.601 20.4887 184.246 20.19C183.892 19.882 183.458 19.728 182.944 19.728C182.459 19.728 182.048 19.8773 181.712 20.176C181.386 20.4653 181.185 20.8713 181.11 21.394H184.792ZM191.221 26.126C190.586 26.126 190.017 26.014 189.513 25.79C189.009 25.5567 188.608 25.244 188.309 24.852C188.02 24.46 187.861 24.026 187.833 23.55H189.807C189.844 23.8487 189.989 24.096 190.241 24.292C190.502 24.488 190.824 24.586 191.207 24.586C191.58 24.586 191.87 24.5113 192.075 24.362C192.29 24.2127 192.397 24.0213 192.397 23.788C192.397 23.536 192.266 23.3493 192.005 23.228C191.753 23.0973 191.347 22.9573 190.787 22.808C190.208 22.668 189.732 22.5233 189.359 22.374C188.995 22.2247 188.678 21.996 188.407 21.688C188.146 21.38 188.015 20.9647 188.015 20.442C188.015 20.0127 188.136 19.6207 188.379 19.266C188.631 18.9113 188.986 18.6313 189.443 18.426C189.91 18.2207 190.456 18.118 191.081 18.118C192.005 18.118 192.742 18.3513 193.293 18.818C193.844 19.2753 194.147 19.896 194.203 20.68H192.327C192.299 20.372 192.168 20.1293 191.935 19.952C191.711 19.7653 191.408 19.672 191.025 19.672C190.67 19.672 190.395 19.7373 190.199 19.868C190.012 19.9987 189.919 20.1807 189.919 20.414C189.919 20.6753 190.05 20.876 190.311 21.016C190.572 21.1467 190.978 21.282 191.529 21.422C192.089 21.562 192.551 21.7067 192.915 21.856C193.279 22.0053 193.592 22.2387 193.853 22.556C194.124 22.864 194.264 23.2747 194.273 23.788C194.273 24.236 194.147 24.6373 193.895 24.992C193.652 25.3467 193.298 25.6267 192.831 25.832C192.374 26.028 191.837 26.126 191.221 26.126ZM198.85 26.126C198.215 26.126 197.646 26.014 197.142 25.79C196.638 25.5567 196.237 25.244 195.938 24.852C195.649 24.46 195.49 24.026 195.462 23.55H197.436C197.473 23.8487 197.618 24.096 197.87 24.292C198.131 24.488 198.453 24.586 198.836 24.586C199.209 24.586 199.499 24.5113 199.704 24.362C199.919 24.2127 200.026 24.0213 200.026 23.788C200.026 23.536 199.895 23.3493 199.634 23.228C199.382 23.0973 198.976 22.9573 198.416 22.808C197.837 22.668 197.361 22.5233 196.988 22.374C196.624 22.2247 196.307 21.996 196.036 21.688C195.775 21.38 195.644 20.9647 195.644 20.442C195.644 20.0127 195.765 19.6207 196.008 19.266C196.26 18.9113 196.615 18.6313 197.072 18.426C197.539 18.2207 198.085 18.118 198.71 18.118C199.634 18.118 200.371 18.3513 200.922 18.818C201.473 19.2753 201.776 19.896 201.832 20.68H199.956C199.928 20.372 199.797 20.1293 199.564 19.952C199.34 19.7653 199.037 19.672 198.654 19.672C198.299 19.672 198.024 19.7373 197.828 19.868C197.641 19.9987 197.548 20.1807 197.548 20.414C197.548 20.6753 197.679 20.876 197.94 21.016C198.201 21.1467 198.607 21.282 199.158 21.422C199.718 21.562 200.18 21.7067 200.544 21.856C200.908 22.0053 201.221 22.2387 201.482 22.556C201.753 22.864 201.893 23.2747 201.902 23.788C201.902 24.236 201.776 24.6373 201.524 24.992C201.281 25.3467 200.927 25.6267 200.46 25.832C200.003 26.028 199.466 26.126 198.85 26.126ZM203.007 22.094C203.007 21.31 203.161 20.6147 203.469 20.008C203.786 19.4013 204.211 18.9347 204.743 18.608C205.284 18.2813 205.886 18.118 206.549 18.118C207.128 18.118 207.632 18.2347 208.061 18.468C208.5 18.7013 208.85 18.9953 209.111 19.35V18.244H211.085V26H209.111V24.866C208.859 25.23 208.509 25.5333 208.061 25.776C207.622 26.0093 207.114 26.126 206.535 26.126C205.882 26.126 205.284 25.958 204.743 25.622C204.211 25.286 203.786 24.8147 203.469 24.208C203.161 23.592 203.007 22.8873 203.007 22.094ZM209.111 22.122C209.111 21.646 209.018 21.24 208.831 20.904C208.644 20.5587 208.392 20.2973 208.075 20.12C207.758 19.9333 207.417 19.84 207.053 19.84C206.689 19.84 206.353 19.9287 206.045 20.106C205.737 20.2833 205.485 20.5447 205.289 20.89C205.102 21.226 205.009 21.6273 205.009 22.094C205.009 22.5607 205.102 22.9713 205.289 23.326C205.485 23.6713 205.737 23.9373 206.045 24.124C206.362 24.3107 206.698 24.404 207.053 24.404C207.417 24.404 207.758 24.3153 208.075 24.138C208.392 23.9513 208.644 23.69 208.831 23.354C209.018 23.0087 209.111 22.598 209.111 22.122ZM216.037 18.118C216.616 18.118 217.125 18.2347 217.563 18.468C218.002 18.692 218.347 18.986 218.599 19.35V18.244H220.573V26.056C220.573 26.7747 220.429 27.414 220.139 27.974C219.85 28.5433 219.416 28.9913 218.837 29.318C218.259 29.654 217.559 29.822 216.737 29.822C215.636 29.822 214.731 29.5653 214.021 29.052C213.321 28.5387 212.925 27.8387 212.831 26.952H214.777C214.88 27.3067 215.099 27.5867 215.435 27.792C215.781 28.0067 216.196 28.114 216.681 28.114C217.251 28.114 217.713 27.9413 218.067 27.596C218.422 27.26 218.599 26.7467 218.599 26.056V24.852C218.347 25.216 217.997 25.5193 217.549 25.762C217.111 26.0047 216.607 26.126 216.037 26.126C215.384 26.126 214.787 25.958 214.245 25.622C213.704 25.286 213.275 24.8147 212.957 24.208C212.649 23.592 212.495 22.8873 212.495 22.094C212.495 21.31 212.649 20.6147 212.957 20.008C213.275 19.4013 213.699 18.9347 214.231 18.608C214.773 18.2813 215.375 18.118 216.037 18.118ZM218.599 22.122C218.599 21.646 218.506 21.24 218.319 20.904C218.133 20.5587 217.881 20.2973 217.563 20.12C217.246 19.9333 216.905 19.84 216.541 19.84C216.177 19.84 215.841 19.9287 215.533 20.106C215.225 20.2833 214.973 20.5447 214.777 20.89C214.591 21.226 214.497 21.6273 214.497 22.094C214.497 22.5607 214.591 22.9713 214.777 23.326C214.973 23.6713 215.225 23.9373 215.533 24.124C215.851 24.3107 216.187 24.404 216.541 24.404C216.905 24.404 217.246 24.3153 217.563 24.138C217.881 23.9513 218.133 23.69 218.319 23.354C218.506 23.0087 218.599 22.598 218.599 22.122ZM229.697 21.954C229.697 22.234 229.679 22.486 229.641 22.71H223.971C224.018 23.27 224.214 23.7087 224.559 24.026C224.905 24.3433 225.329 24.502 225.833 24.502C226.561 24.502 227.079 24.1893 227.387 23.564H229.501C229.277 24.3107 228.848 24.9267 228.213 25.412C227.579 25.888 226.799 26.126 225.875 26.126C225.129 26.126 224.457 25.9627 223.859 25.636C223.271 25.3 222.809 24.8287 222.473 24.222C222.147 23.6153 221.983 22.9153 221.983 22.122C221.983 21.3193 222.147 20.6147 222.473 20.008C222.8 19.4013 223.257 18.9347 223.845 18.608C224.433 18.2813 225.11 18.118 225.875 18.118C226.613 18.118 227.271 18.2767 227.849 18.594C228.437 18.9113 228.89 19.364 229.207 19.952C229.534 20.5307 229.697 21.198 229.697 21.954ZM227.667 21.394C227.658 20.89 227.476 20.4887 227.121 20.19C226.767 19.882 226.333 19.728 225.819 19.728C225.334 19.728 224.923 19.8773 224.587 20.176C224.261 20.4653 224.06 20.8713 223.985 21.394H227.667Z" fill="black"/>
</svg>
