<svg width="125" height="44" viewBox="0 0 125 44" fill="none" xmlns="http://www.w3.org/2000/svg">
<rect width="125" height="44" rx="22" fill="#FDE404"/>
<path d="M17.1916 17.81V20.26H20.4816V21.814H17.1916V24.404H20.9016V26H15.2316V16.214H20.9016V17.81H17.1916ZM22.1788 22.094C22.1788 21.31 22.3328 20.6147 22.6408 20.008C22.9581 19.4013 23.3875 18.9347 23.9288 18.608C24.4701 18.2813 25.0721 18.118 25.7348 18.118C26.2388 18.118 26.7195 18.23 27.1768 18.454C27.6341 18.6687 27.9981 18.958 28.2688 19.322V15.64H30.2568V26H28.2688V24.852C28.0261 25.2347 27.6855 25.5427 27.2468 25.776C26.8081 26.0093 26.2995 26.126 25.7208 26.126C25.0675 26.126 24.4701 25.958 23.9288 25.622C23.3875 25.286 22.9581 24.8147 22.6408 24.208C22.3328 23.592 22.1788 22.8873 22.1788 22.094ZM28.2828 22.122C28.2828 21.646 28.1895 21.24 28.0028 20.904C27.8161 20.5587 27.5641 20.2973 27.2468 20.12C26.9295 19.9333 26.5888 19.84 26.2248 19.84C25.8608 19.84 25.5248 19.9287 25.2168 20.106C24.9088 20.2833 24.6568 20.5447 24.4608 20.89C24.2741 21.226 24.1808 21.6273 24.1808 22.094C24.1808 22.5607 24.2741 22.9713 24.4608 23.326C24.6568 23.6713 24.9088 23.9373 25.2168 24.124C25.5341 24.3107 25.8701 24.404 26.2248 24.404C26.5888 24.404 26.9295 24.3153 27.2468 24.138C27.5641 23.9513 27.8161 23.69 28.0028 23.354C28.1895 23.0087 28.2828 22.598 28.2828 22.122ZM33.1651 17.32C32.8197 17.32 32.5304 17.2127 32.2971 16.998C32.0731 16.774 31.9611 16.4987 31.9611 16.172C31.9611 15.8453 32.0731 15.5747 32.2971 15.36C32.5304 15.136 32.8197 15.024 33.1651 15.024C33.5104 15.024 33.7951 15.136 34.0191 15.36C34.2524 15.5747 34.3691 15.8453 34.3691 16.172C34.3691 16.4987 34.2524 16.774 34.0191 16.998C33.7951 17.2127 33.5104 17.32 33.1651 17.32ZM34.1311 18.244V26H32.1711V18.244H34.1311ZM38.3496 19.854V23.606C38.3496 23.8673 38.4102 24.0587 38.5316 24.18C38.6622 24.292 38.8769 24.348 39.1756 24.348H40.0856V26H38.8536C37.2016 26 36.3756 25.1973 36.3756 23.592V19.854H35.4516V18.244H36.3756V16.326H38.3496V18.244H40.0856V19.854H38.3496ZM48.7053 21.954C48.7053 22.234 48.6866 22.486 48.6493 22.71H42.9793C43.026 23.27 43.222 23.7087 43.5673 24.026C43.9126 24.3433 44.3373 24.502 44.8413 24.502C45.5693 24.502 46.0873 24.1893 46.3953 23.564H48.5093C48.2853 24.3107 47.856 24.9267 47.2213 25.412C46.5866 25.888 45.8073 26.126 44.8833 26.126C44.1366 26.126 43.4646 25.9627 42.8673 25.636C42.2793 25.3 41.8173 24.8287 41.4813 24.222C41.1546 23.6153 40.9913 22.9153 40.9913 22.122C40.9913 21.3193 41.1546 20.6147 41.4813 20.008C41.808 19.4013 42.2653 18.9347 42.8533 18.608C43.4413 18.2813 44.118 18.118 44.8833 18.118C45.6206 18.118 46.2786 18.2767 46.8573 18.594C47.4453 18.9113 47.898 19.364 48.2153 19.952C48.542 20.5307 48.7053 21.198 48.7053 21.954ZM46.6753 21.394C46.666 20.89 46.484 20.4887 46.1293 20.19C45.7746 19.882 45.3406 19.728 44.8273 19.728C44.342 19.728 43.9313 19.8773 43.5953 20.176C43.2686 20.4653 43.068 20.8713 42.9933 21.394H46.6753ZM52.0959 19.448C52.3479 19.0373 52.6746 18.7153 53.0759 18.482C53.4866 18.2487 53.9533 18.132 54.4759 18.132V20.19H53.9579C53.3419 20.19 52.8753 20.3347 52.5579 20.624C52.2499 20.9133 52.0959 21.4173 52.0959 22.136V26H50.1359V18.244H52.0959V19.448ZM61.092 15.64V26H59.132V15.64H61.092ZM70.2385 21.954C70.2385 22.234 70.2198 22.486 70.1825 22.71H64.5125C64.5592 23.27 64.7552 23.7087 65.1005 24.026C65.4458 24.3433 65.8705 24.502 66.3745 24.502C67.1025 24.502 67.6205 24.1893 67.9285 23.564H70.0425C69.8185 24.3107 69.3892 24.9267 68.7545 25.412C68.1198 25.888 67.3405 26.126 66.4165 26.126C65.6698 26.126 64.9978 25.9627 64.4005 25.636C63.8125 25.3 63.3505 24.8287 63.0145 24.222C62.6878 23.6153 62.5245 22.9153 62.5245 22.122C62.5245 21.3193 62.6878 20.6147 63.0145 20.008C63.3412 19.4013 63.7985 18.9347 64.3865 18.608C64.9745 18.2813 65.6512 18.118 66.4165 18.118C67.1538 18.118 67.8118 18.2767 68.3905 18.594C68.9785 18.9113 69.4312 19.364 69.7485 19.952C70.0752 20.5307 70.2385 21.198 70.2385 21.954ZM68.2085 21.394C68.1992 20.89 68.0172 20.4887 67.6625 20.19C67.3078 19.882 66.8738 19.728 66.3605 19.728C65.8752 19.728 65.4645 19.8773 65.1285 20.176C64.8018 20.4653 64.6012 20.8713 64.5265 21.394H68.2085ZM76.9651 19.364C77.2171 19.0093 77.5624 18.7153 78.0011 18.482C78.4491 18.2393 78.9577 18.118 79.5271 18.118C80.1897 18.118 80.7871 18.2813 81.3191 18.608C81.8604 18.9347 82.2851 19.4013 82.5931 20.008C82.9104 20.6053 83.0691 21.3007 83.0691 22.094C83.0691 22.8873 82.9104 23.592 82.5931 24.208C82.2851 24.8147 81.8604 25.286 81.3191 25.622C80.7871 25.958 80.1897 26.126 79.5271 26.126C78.9577 26.126 78.4537 26.0093 78.0151 25.776C77.5857 25.5427 77.2357 25.2487 76.9651 24.894V29.696H75.0051V18.244H76.9651V19.364ZM81.0671 22.094C81.0671 21.6273 80.9691 21.226 80.7731 20.89C80.5864 20.5447 80.3344 20.2833 80.0171 20.106C79.7091 19.9287 79.3731 19.84 79.0091 19.84C78.6544 19.84 78.3184 19.9333 78.0011 20.12C77.6931 20.2973 77.4411 20.5587 77.2451 20.904C77.0584 21.2493 76.9651 21.6553 76.9651 22.122C76.9651 22.5887 77.0584 22.9947 77.2451 23.34C77.4411 23.6853 77.6931 23.9513 78.0011 24.138C78.3184 24.3153 78.6544 24.404 79.0091 24.404C79.3731 24.404 79.7091 24.3107 80.0171 24.124C80.3344 23.9373 80.5864 23.6713 80.7731 23.326C80.9691 22.9807 81.0671 22.57 81.0671 22.094ZM86.4533 19.448C86.7053 19.0373 87.032 18.7153 87.4333 18.482C87.844 18.2487 88.3107 18.132 88.8333 18.132V20.19H88.3153C87.6993 20.19 87.2327 20.3347 86.9153 20.624C86.6073 20.9133 86.4533 21.4173 86.4533 22.136V26H84.4933V18.244H86.4533V19.448ZM93.5975 26.126C92.8508 26.126 92.1788 25.9627 91.5815 25.636C90.9842 25.3 90.5128 24.8287 90.1675 24.222C89.8315 23.6153 89.6635 22.9153 89.6635 22.122C89.6635 21.3287 89.8362 20.6287 90.1815 20.022C90.5362 19.4153 91.0168 18.9487 91.6235 18.622C92.2302 18.286 92.9068 18.118 93.6535 18.118C94.4002 18.118 95.0768 18.286 95.6835 18.622C96.2902 18.9487 96.7662 19.4153 97.1115 20.022C97.4662 20.6287 97.6435 21.3287 97.6435 22.122C97.6435 22.9153 97.4615 23.6153 97.0975 24.222C96.7428 24.8287 96.2575 25.3 95.6415 25.636C95.0348 25.9627 94.3535 26.126 93.5975 26.126ZM93.5975 24.418C93.9522 24.418 94.2835 24.334 94.5915 24.166C94.9088 23.9887 95.1608 23.7273 95.3475 23.382C95.5342 23.0367 95.6275 22.6167 95.6275 22.122C95.6275 21.3847 95.4315 20.82 95.0395 20.428C94.6568 20.0267 94.1855 19.826 93.6255 19.826C93.0655 19.826 92.5942 20.0267 92.2115 20.428C91.8382 20.82 91.6515 21.3847 91.6515 22.122C91.6515 22.8593 91.8335 23.4287 92.1975 23.83C92.5708 24.222 93.0375 24.418 93.5975 24.418ZM102.637 19.854H101.279V26H99.2912V19.854H98.4092V18.244H99.2912V17.852C99.2912 16.9 99.5619 16.2 100.103 15.752C100.645 15.304 101.461 15.094 102.553 15.122V16.774C102.077 16.7647 101.746 16.844 101.559 17.012C101.373 17.18 101.279 17.4833 101.279 17.922V18.244H102.637V19.854ZM104.901 17.32C104.556 17.32 104.267 17.2127 104.033 16.998C103.809 16.774 103.697 16.4987 103.697 16.172C103.697 15.8453 103.809 15.5747 104.033 15.36C104.267 15.136 104.556 15.024 104.901 15.024C105.247 15.024 105.531 15.136 105.755 15.36C105.989 15.5747 106.105 15.8453 106.105 16.172C106.105 16.4987 105.989 16.774 105.755 16.998C105.531 17.2127 105.247 17.32 104.901 17.32ZM105.867 18.244V26H103.907V18.244H105.867ZM109.764 15.64V26H107.804V15.64H109.764Z" fill="black"/>
</svg>
