<svg width="135" height="44" viewBox="0 0 135 44" fill="none" xmlns="http://www.w3.org/2000/svg">
<rect width="125" height="44" rx="22" fill="#FDE404"/>
<path d="M17.964 25.404H14.628L14.076 27H12.312L15.324 18.612H17.28L20.292 27H18.516L17.964 25.404ZM17.508 24.06L16.296 20.556L15.084 24.06H17.508ZM22.2698 19.56C21.9658 19.56 21.7138 19.468 21.5138 19.284C21.3218 19.092 21.2258 18.856 21.2258 18.576C21.2258 18.296 21.3218 18.064 21.5138 17.88C21.7138 17.688 21.9658 17.592 22.2698 17.592C22.5658 17.592 22.8098 17.688 23.0018 17.88C23.1938 18.064 23.2898 18.296 23.2898 18.576C23.2898 18.856 23.1938 19.092 23.0018 19.284C22.8098 19.468 22.5658 19.56 22.2698 19.56ZM23.0978 28.092C23.0978 28.828 22.9138 29.356 22.5458 29.676C22.1858 30.004 21.6658 30.168 20.9858 30.168H20.2418V28.74H20.7218C20.9778 28.74 21.1578 28.688 21.2618 28.584C21.3658 28.488 21.4178 28.328 21.4178 28.104V20.352H23.0978V28.092ZM27.7097 27.108C27.0697 27.108 26.4937 26.968 25.9817 26.688C25.4697 26.4 25.0657 25.996 24.7697 25.476C24.4817 24.956 24.3377 24.356 24.3377 23.676C24.3377 22.996 24.4857 22.396 24.7817 21.876C25.0857 21.356 25.4977 20.956 26.0177 20.676C26.5377 20.388 27.1177 20.244 27.7577 20.244C28.3977 20.244 28.9777 20.388 29.4977 20.676C30.0177 20.956 30.4257 21.356 30.7217 21.876C31.0257 22.396 31.1777 22.996 31.1777 23.676C31.1777 24.356 31.0217 24.956 30.7097 25.476C30.4057 25.996 29.9897 26.4 29.4617 26.688C28.9417 26.968 28.3577 27.108 27.7097 27.108ZM27.7097 25.644C28.0137 25.644 28.2977 25.572 28.5617 25.428C28.8337 25.276 29.0497 25.052 29.2097 24.756C29.3697 24.46 29.4497 24.1 29.4497 23.676C29.4497 23.044 29.2817 22.56 28.9457 22.224C28.6177 21.88 28.2137 21.708 27.7337 21.708C27.2537 21.708 26.8497 21.88 26.5217 22.224C26.2017 22.56 26.0417 23.044 26.0417 23.676C26.0417 24.308 26.1977 24.796 26.5097 25.14C26.8297 25.476 27.2297 25.644 27.7097 25.644ZM38.686 20.352V27H36.994V26.16C36.778 26.448 36.494 26.676 36.142 26.844C35.798 27.004 35.422 27.084 35.014 27.084C34.494 27.084 34.034 26.976 33.634 26.76C33.234 26.536 32.918 26.212 32.686 25.788C32.462 25.356 32.35 24.844 32.35 24.252V20.352H34.03V24.012C34.03 24.54 34.162 24.948 34.426 25.236C34.69 25.516 35.05 25.656 35.506 25.656C35.97 25.656 36.334 25.516 36.598 25.236C36.862 24.948 36.994 24.54 36.994 24.012V20.352H38.686ZM42.2996 21.732V24.948C42.2996 25.172 42.3516 25.336 42.4556 25.44C42.5676 25.536 42.7516 25.584 43.0076 25.584H43.7876V27H42.7316C41.3156 27 40.6076 26.312 40.6076 24.936V21.732H39.8156V20.352H40.6076V18.708H42.2996V20.352H43.7876V21.732H42.2996ZM51.176 23.532C51.176 23.772 51.16 23.988 51.128 24.18H46.268C46.308 24.66 46.476 25.036 46.772 25.308C47.068 25.58 47.432 25.716 47.864 25.716C48.488 25.716 48.932 25.448 49.196 24.912H51.008C50.816 25.552 50.448 26.08 49.904 26.496C49.36 26.904 48.692 27.108 47.9 27.108C47.26 27.108 46.684 26.968 46.172 26.688C45.668 26.4 45.272 25.996 44.984 25.476C44.704 24.956 44.564 24.356 44.564 23.676C44.564 22.988 44.704 22.384 44.984 21.864C45.264 21.344 45.656 20.944 46.16 20.664C46.664 20.384 47.244 20.244 47.9 20.244C48.532 20.244 49.096 20.38 49.592 20.652C50.096 20.924 50.484 21.312 50.756 21.816C51.036 22.312 51.176 22.884 51.176 23.532ZM49.436 23.052C49.428 22.62 49.272 22.276 48.968 22.02C48.664 21.756 48.292 21.624 47.852 21.624C47.436 21.624 47.084 21.752 46.796 22.008C46.516 22.256 46.344 22.604 46.28 23.052H49.436ZM54.0822 21.384C54.2982 21.032 54.5782 20.756 54.9222 20.556C55.2742 20.356 55.6742 20.256 56.1222 20.256V22.02H55.6782C55.1502 22.02 54.7502 22.144 54.4782 22.392C54.2142 22.64 54.0822 23.072 54.0822 23.688V27H52.4022V20.352H54.0822V21.384ZM59.6812 23.652C59.6812 22.98 59.8132 22.384 60.0772 21.864C60.3492 21.344 60.7132 20.944 61.1692 20.664C61.6332 20.384 62.1492 20.244 62.7172 20.244C63.2132 20.244 63.6452 20.344 64.0132 20.544C64.3892 20.744 64.6892 20.996 64.9132 21.3V20.352H66.6052V27H64.9132V26.028C64.6972 26.34 64.3972 26.6 64.0132 26.808C63.6372 27.008 63.2012 27.108 62.7052 27.108C62.1452 27.108 61.6332 26.964 61.1692 26.676C60.7132 26.388 60.3492 25.984 60.0772 25.464C59.8132 24.936 59.6812 24.332 59.6812 23.652ZM64.9132 23.676C64.9132 23.268 64.8332 22.92 64.6732 22.632C64.5132 22.336 64.2972 22.112 64.0252 21.96C63.7532 21.8 63.4612 21.72 63.1492 21.72C62.8372 21.72 62.5492 21.796 62.2852 21.948C62.0212 22.1 61.8052 22.324 61.6372 22.62C61.4772 22.908 61.3972 23.252 61.3972 23.652C61.3972 24.052 61.4772 24.404 61.6372 24.708C61.8052 25.004 62.0212 25.232 62.2852 25.392C62.5572 25.552 62.8452 25.632 63.1492 25.632C63.4612 25.632 63.7532 25.556 64.0252 25.404C64.2972 25.244 64.5132 25.02 64.6732 24.732C64.8332 24.436 64.9132 24.084 64.9132 23.676ZM64.6852 18.684V19.884L61.9252 18.624V17.256L64.6852 18.684ZM72.7853 18.12V27H71.1053V18.12H72.7853ZM74.0132 23.652C74.0132 22.98 74.1452 22.384 74.4092 21.864C74.6812 21.344 75.0452 20.944 75.5012 20.664C75.9652 20.384 76.4812 20.244 77.0492 20.244C77.5452 20.244 77.9772 20.344 78.3452 20.544C78.7212 20.744 79.0212 20.996 79.2452 21.3V20.352H80.9372V27H79.2452V26.028C79.0292 26.34 78.7292 26.6 78.3452 26.808C77.9692 27.008 77.5332 27.108 77.0372 27.108C76.4772 27.108 75.9652 26.964 75.5012 26.676C75.0452 26.388 74.6812 25.984 74.4092 25.464C74.1452 24.936 74.0132 24.332 74.0132 23.652ZM79.2452 23.676C79.2452 23.268 79.1652 22.92 79.0052 22.632C78.8452 22.336 78.6292 22.112 78.3572 21.96C78.0852 21.8 77.7932 21.72 77.4812 21.72C77.1692 21.72 76.8812 21.796 76.6172 21.948C76.3532 22.1 76.1372 22.324 75.9692 22.62C75.8092 22.908 75.7292 23.252 75.7292 23.652C75.7292 24.052 75.8092 24.404 75.9692 24.708C76.1372 25.004 76.3532 25.232 76.6172 25.392C76.8892 25.552 77.1772 25.632 77.4812 25.632C77.7932 25.632 78.0852 25.556 78.3572 25.404C78.6292 25.244 78.8452 25.02 79.0052 24.732C79.1652 24.436 79.2452 24.084 79.2452 23.676ZM87.9814 27.108C87.4374 27.108 86.9494 27.012 86.5174 26.82C86.0854 26.62 85.7414 26.352 85.4854 26.016C85.2374 25.68 85.1014 25.308 85.0774 24.9H86.7694C86.8014 25.156 86.9254 25.368 87.1414 25.536C87.3654 25.704 87.6414 25.788 87.9694 25.788C88.2894 25.788 88.5374 25.724 88.7134 25.596C88.8974 25.468 88.9894 25.304 88.9894 25.104C88.9894 24.888 88.8774 24.728 88.6534 24.624C88.4374 24.512 88.0894 24.392 87.6094 24.264C87.1134 24.144 86.7054 24.02 86.3854 23.892C86.0734 23.764 85.8014 23.568 85.5694 23.304C85.3454 23.04 85.2334 22.684 85.2334 22.236C85.2334 21.868 85.3374 21.532 85.5454 21.228C85.7614 20.924 86.0654 20.684 86.4574 20.508C86.8574 20.332 87.3254 20.244 87.8614 20.244C88.6534 20.244 89.2854 20.444 89.7574 20.844C90.2294 21.236 90.4894 21.768 90.5374 22.44H88.9294C88.9054 22.176 88.7934 21.968 88.5934 21.816C88.4014 21.656 88.1414 21.576 87.8134 21.576C87.5094 21.576 87.2734 21.632 87.1054 21.744C86.9454 21.856 86.8654 22.012 86.8654 22.212C86.8654 22.436 86.9774 22.608 87.2014 22.728C87.4254 22.84 87.7734 22.956 88.2454 23.076C88.7254 23.196 89.1214 23.32 89.4334 23.448C89.7454 23.576 90.0134 23.776 90.2374 24.048C90.4694 24.312 90.5894 24.664 90.5974 25.104C90.5974 25.488 90.4894 25.832 90.2734 26.136C90.0654 26.44 89.7614 26.68 89.3614 26.856C88.9694 27.024 88.5094 27.108 87.9814 27.108ZM93.9324 21.732V24.948C93.9324 25.172 93.9844 25.336 94.0884 25.44C94.2004 25.536 94.3844 25.584 94.6404 25.584H95.4204V27H94.3644C92.9484 27 92.2404 26.312 92.2404 24.936V21.732H91.4484V20.352H92.2404V18.708H93.9324V20.352H95.4204V21.732H93.9324ZM99.5808 27.108C98.9408 27.108 98.3648 26.968 97.8528 26.688C97.3408 26.4 96.9368 25.996 96.6408 25.476C96.3528 24.956 96.2088 24.356 96.2088 23.676C96.2088 22.996 96.3568 22.396 96.6528 21.876C96.9568 21.356 97.3688 20.956 97.8888 20.676C98.4088 20.388 98.9888 20.244 99.6288 20.244C100.269 20.244 100.849 20.388 101.369 20.676C101.889 20.956 102.297 21.356 102.593 21.876C102.897 22.396 103.049 22.996 103.049 23.676C103.049 24.356 102.893 24.956 102.581 25.476C102.277 25.996 101.861 26.4 101.333 26.688C100.813 26.968 100.229 27.108 99.5808 27.108ZM99.5808 25.644C99.8848 25.644 100.169 25.572 100.433 25.428C100.705 25.276 100.921 25.052 101.081 24.756C101.241 24.46 101.321 24.1 101.321 23.676C101.321 23.044 101.153 22.56 100.817 22.224C100.489 21.88 100.085 21.708 99.6048 21.708C99.1248 21.708 98.7208 21.88 98.3928 22.224C98.0728 22.56 97.9128 23.044 97.9128 23.676C97.9128 24.308 98.0688 24.796 98.3808 25.14C98.7008 25.476 99.1008 25.644 99.5808 25.644ZM105.961 21.384C106.177 21.032 106.457 20.756 106.801 20.556C107.153 20.356 107.553 20.256 108.001 20.256V22.02H107.557C107.029 22.02 106.629 22.144 106.357 22.392C106.093 22.64 105.961 23.072 105.961 23.688V27H104.281V20.352H105.961V21.384ZM115.493 20.352L111.377 30.144H109.589L111.029 26.832L108.365 20.352H110.249L111.965 24.996L113.705 20.352H115.493Z" fill="black"/>
</svg>
