<svg width="295" height="39" viewBox="0 0 295 39" fill="none" xmlns="http://www.w3.org/2000/svg">
<rect width="295" height="39" rx="19.5" fill="#FDE404"/>
<path d="M135.62 16.228V26H133.66V19.644L131.042 26H129.558L126.926 19.644V26H124.966V16.228H127.192L130.3 23.494L133.408 16.228H135.62ZM144.768 21.954C144.768 22.234 144.749 22.486 144.712 22.71H139.042C139.088 23.27 139.284 23.7087 139.63 24.026C139.975 24.3433 140.4 24.502 140.904 24.502C141.632 24.502 142.15 24.1893 142.458 23.564H144.572C144.348 24.3107 143.918 24.9267 143.284 25.412C142.649 25.888 141.87 26.126 140.946 26.126C140.199 26.126 139.527 25.9627 138.93 25.636C138.342 25.3 137.88 24.8287 137.544 24.222C137.217 23.6153 137.054 22.9153 137.054 22.122C137.054 21.3193 137.217 20.6147 137.544 20.008C137.87 19.4013 138.328 18.9347 138.916 18.608C139.504 18.2813 140.18 18.118 140.946 18.118C141.683 18.118 142.341 18.2767 142.92 18.594C143.508 18.9113 143.96 19.364 144.278 19.952C144.604 20.5307 144.768 21.198 144.768 21.954ZM142.738 21.394C142.728 20.89 142.546 20.4887 142.192 20.19C141.837 19.882 141.403 19.728 140.89 19.728C140.404 19.728 139.994 19.8773 139.658 20.176C139.331 20.4653 139.13 20.8713 139.056 21.394H142.738ZM142.444 16.2L139.224 17.67V16.27L142.444 14.604V16.2ZM145.694 22.094C145.694 21.31 145.848 20.6147 146.156 20.008C146.474 19.4013 146.903 18.9347 147.444 18.608C147.986 18.2813 148.588 18.118 149.25 18.118C149.754 18.118 150.235 18.23 150.692 18.454C151.15 18.6687 151.514 18.958 151.784 19.322V15.64H153.772V26H151.784V24.852C151.542 25.2347 151.201 25.5427 150.762 25.776C150.324 26.0093 149.815 26.126 149.236 26.126C148.583 26.126 147.986 25.958 147.444 25.622C146.903 25.286 146.474 24.8147 146.156 24.208C145.848 23.592 145.694 22.8873 145.694 22.094ZM151.798 22.122C151.798 21.646 151.705 21.24 151.518 20.904C151.332 20.5587 151.08 20.2973 150.762 20.12C150.445 19.9333 150.104 19.84 149.74 19.84C149.376 19.84 149.04 19.9287 148.732 20.106C148.424 20.2833 148.172 20.5447 147.976 20.89C147.79 21.226 147.696 21.6273 147.696 22.094C147.696 22.5607 147.79 22.9713 147.976 23.326C148.172 23.6713 148.424 23.9373 148.732 24.124C149.05 24.3107 149.386 24.404 149.74 24.404C150.104 24.404 150.445 24.3153 150.762 24.138C151.08 23.9513 151.332 23.69 151.518 23.354C151.705 23.0087 151.798 22.598 151.798 22.122ZM156.681 17.32C156.335 17.32 156.046 17.2127 155.813 16.998C155.589 16.774 155.477 16.4987 155.477 16.172C155.477 15.8453 155.589 15.5747 155.813 15.36C156.046 15.136 156.335 15.024 156.681 15.024C157.026 15.024 157.311 15.136 157.535 15.36C157.768 15.5747 157.885 15.8453 157.885 16.172C157.885 16.4987 157.768 16.774 157.535 16.998C157.311 17.2127 157.026 17.32 156.681 17.32ZM157.647 18.244V26H155.687V18.244H157.647ZM159.079 22.094C159.079 21.31 159.233 20.6147 159.541 20.008C159.859 19.4013 160.283 18.9347 160.815 18.608C161.357 18.2813 161.959 18.118 162.621 18.118C163.2 18.118 163.704 18.2347 164.133 18.468C164.572 18.7013 164.922 18.9953 165.183 19.35V18.244H167.157V26H165.183V24.866C164.931 25.23 164.581 25.5333 164.133 25.776C163.695 26.0093 163.186 26.126 162.607 26.126C161.954 26.126 161.357 25.958 160.815 25.622C160.283 25.286 159.859 24.8147 159.541 24.208C159.233 23.592 159.079 22.8873 159.079 22.094ZM165.183 22.122C165.183 21.646 165.09 21.24 164.903 20.904C164.717 20.5587 164.465 20.2973 164.147 20.12C163.83 19.9333 163.489 19.84 163.125 19.84C162.761 19.84 162.425 19.9287 162.117 20.106C161.809 20.2833 161.557 20.5447 161.361 20.89C161.175 21.226 161.081 21.6273 161.081 22.094C161.081 22.5607 161.175 22.9713 161.361 23.326C161.557 23.6713 161.809 23.9373 162.117 24.124C162.435 24.3107 162.771 24.404 163.125 24.404C163.489 24.404 163.83 24.3153 164.147 24.138C164.465 23.9513 164.717 23.69 164.903 23.354C165.09 23.0087 165.183 22.598 165.183 22.122Z" fill="black"/>
</svg>
