<svg width="28" height="36" viewBox="0 0 28 36" fill="none" xmlns="http://www.w3.org/2000/svg">
<circle cx="18.8144" cy="8.49999" r="7.99999" stroke="black"/>
<path d="M17.9858 28.2813C17.3836 27.0972 16.6643 24.8494 16.6242 20.8646L16.616 20.0516C16.5662 15.1049 13.1779 11.0899 9.05609 11.103L8.99804 11.1037C8.00795 11.1151 7.02991 11.3576 6.11995 11.8172C5.20999 12.2769 4.38598 12.9447 3.69513 13.7824C3.00428 14.6202 2.46016 15.6114 2.09394 16.6992C1.72772 17.787 1.54659 18.9502 1.56093 20.122L1.57016 21.038C1.61027 25.0229 0.93639 27.2867 0.358213 28.4844C0.239995 28.7308 0.179212 29.0101 0.182067 29.2938C0.184923 29.5774 0.251314 29.8553 0.374466 30.0989C0.493304 30.3433 0.665461 30.5454 0.872864 30.684C1.08027 30.8227 1.31527 30.8928 1.55319 30.887L5.51987 30.8413L5.52218 31.0703C5.53379 32.2243 5.93227 33.3266 6.62995 34.1347C7.32763 34.9428 8.26736 35.3905 9.24241 35.3792C10.2175 35.368 11.148 34.8988 11.8292 34.0748C12.5105 33.2509 12.8867 32.1396 12.875 30.9856L12.8727 30.7566L16.8394 30.7109C17.0774 30.7112 17.3109 30.6357 17.5155 30.4923C17.7201 30.3489 17.8881 30.1429 18.002 29.8958C18.1202 29.6494 18.181 29.3701 18.1782 29.0864C18.1753 28.8028 18.1089 28.525 17.9858 28.2813ZM11.7141 30.999C11.722 31.7886 11.4646 32.5489 10.9985 33.1126C10.5324 33.6764 9.89572 33.9975 9.22858 34.0051C8.56144 34.0128 7.91847 33.7065 7.44111 33.1536C6.96375 32.6007 6.6911 31.8465 6.68316 31.0569L6.68085 30.8279L11.7118 30.77L11.7141 30.999ZM16.9889 29.2204C16.9742 29.2565 16.951 29.2868 16.922 29.3075C16.893 29.3281 16.8595 29.3383 16.8256 29.3368L1.53936 29.5129C1.50552 29.5152 1.47183 29.5058 1.44241 29.4858C1.41299 29.4658 1.38912 29.4361 1.37373 29.4003C1.3564 29.3657 1.34706 29.3263 1.34666 29.2861C1.34625 29.2459 1.35479 29.2063 1.37143 29.1713C2.01571 27.8125 2.77425 25.3072 2.73114 21.0246L2.72191 20.1086C2.71067 19.1176 2.86444 18.1342 3.17445 17.2144C3.48447 16.2946 3.94465 15.4565 4.52873 14.7479C5.1128 14.0394 5.80934 13.4742 6.57856 13.0846C7.34778 12.6951 8.17462 12.4889 9.01188 12.4778L9.06025 12.4772C12.5434 12.46 15.4128 15.874 15.455 20.065L15.4632 20.878C15.5063 25.1605 16.3151 27.6478 16.9866 28.9914C17.0039 29.026 17.0133 29.0654 17.0137 29.1056C17.0141 29.1458 17.0055 29.1854 16.9889 29.2204Z" fill="black"/>
</svg>
